# xmcd
#
# Track frame offsets: 
#        150
#        21394
#        49434
#        70857
#        93125
#        113145
#        129221
#        146212
#        162727
#
# Disc length: 2504 seconds
#
# Revision: 0
# Processed by: cddbd v1.5.2PL0 Copyright (c) Steve Scherf et al.
# Submitted via: ExactAudioCopy v0.95b4
#
DISCID=8109c609
DTITLE=Jeff Beck - Flash
DYEAR=1985
DGENRE=Blues
TTITLE0=Ambitious
TTITLE1=Get Us All In The End
TTITLE2=Escape
TTITLE3=People Get Ready
TTITLE4=Stop, Look And Listen
TTITLE5=Get Workin
TTITLE6=Ecstasy
TTITLE7=Night After Night
TTITLE8=You Know, We Know
EXTD=
EXTT0=
EXTT1=
EXTT2=
EXTT3=
EXTT4=
EXTT5=
EXTT6=
EXTT7=
EXTT8=
PLAYORDER=
